<?xml version="1.0" encoding="UTF-8" standalone="no"?>
<!-- Created with Inkscape (http://www.inkscape.org/) -->

<svg
   xmlns:dc="http://purl.org/dc/elements/1.1/"
   xmlns:cc="http://creativecommons.org/ns#"
   xmlns:rdf="http://www.w3.org/1999/02/22-rdf-syntax-ns#"
   xmlns:svg="http://www.w3.org/2000/svg"
   xmlns="http://www.w3.org/2000/svg"
   xmlns:sodipodi="http://sodipodi.sourceforge.net/DTD/sodipodi-0.dtd"
   xmlns:inkscape="http://www.inkscape.org/namespaces/inkscape"
   width="210mm"
   height="297mm"
   viewBox="0 0 210 297"
   version="1.1"
   id="svg8"
   inkscape:version="0.92.4 (5da689c313, 2019-01-14)"
   sodipodi:docname="sho.svg">
  <defs
     id="defs2" />
  <sodipodi:namedview
     id="base"
     pagecolor="#ffffff"
     bordercolor="#666666"
     borderopacity="1.0"
     inkscape:pageopacity="0.0"
     inkscape:pageshadow="2"
     inkscape:zoom="0.49497474"
     inkscape:cx="106.36288"
     inkscape:cy="146.68255"
     inkscape:document-units="mm"
     inkscape:current-layer="layer1"
     showgrid="false"
     inkscape:window-width="1366"
     inkscape:window-height="706"
     inkscape:window-x="-8"
     inkscape:window-y="-8"
     inkscape:window-maximized="1" />
  <metadata
     id="metadata5">
    <rdf:RDF>
      <cc:Work
         rdf:about="">
        <dc:format>image/svg+xml</dc:format>
        <dc:type
           rdf:resource="http://purl.org/dc/dcmitype/StillImage" />
        <dc:title />
      </cc:Work>
    </rdf:RDF>
  </metadata>
  <g
     inkscape:label="Layer 1"
     inkscape:groupmode="layer"
     id="layer1">
    <path
       style="opacity:0.01000001;fill:#ffffff;fill-opacity:1;stroke:#000000;stroke-width:0.49093413;stroke-miterlimit:4;stroke-dasharray:none;stroke-opacity:1"
       d="M 11.63515,218.8211 V 69.417435 H 116.13753 220.63992 V 218.8211 368.22476 H 116.13753 11.63515 Z"
       id="path1579"
       inkscape:connector-curvature="0" />
    <path
       style="opacity:0.01000001;fill:#1f1f1f;fill-opacity:1;stroke:#000000;stroke-width:0.49093413;stroke-miterlimit:4;stroke-dasharray:none;stroke-opacity:1"
       d="M -350.04167,492.17573 V 342.77206 h 104.50238 104.50239 v 149.40367 149.40366 h -104.50239 -104.50238 z"
       id="path1581"
       inkscape:connector-curvature="0" />
    <path
       style="opacity:0.01000001;fill:#ffffff;fill-opacity:1;stroke:#000000;stroke-width:0.49093413;stroke-miterlimit:4;stroke-dasharray:none;stroke-opacity:1"
       d="M 293.8867,417.00311 V 267.59944 H 398.38908 502.89147 V 417.00311 566.40677 H 398.38908 293.8867 Z"
       id="path1583"
       inkscape:connector-curvature="0" />
    <path
       style="opacity:0.01000001;fill:none;fill-opacity:1;stroke:#000000;stroke-width:1.85549915;stroke-miterlimit:4;stroke-dasharray:none;stroke-opacity:1"
       d="M 4.3483387,569.21676 V 4.5414828 H 399.31798 794.28763 V 569.21676 1133.892 H 399.31798 4.3483387 Z"
       id="path1585"
       inkscape:connector-curvature="0"
       transform="scale(0.26458333)" />
    <path
       style="opacity:0;fill:none;fill-opacity:1;stroke:none;stroke-width:1.85549915;stroke-miterlimit:4;stroke-dasharray:none;stroke-opacity:1"
       d="M 4.3483387,569.21676 V 4.5414828 H 399.31798 794.28763 V 569.21676 1133.892 H 399.31798 4.3483387 Z"
       id="path1587"
       inkscape:connector-curvature="0"
       transform="scale(0.26458333)" />
    <path
       style="opacity:1;fill:none;fill-opacity:1;stroke:none;stroke-width:1.85549915;stroke-miterlimit:4;stroke-dasharray:none;stroke-opacity:1"
       d="M 4.3483387,569.21676 V 4.5414828 H 399.31798 794.28763 V 569.21676 1133.892 H 399.31798 4.3483387 Z"
       id="path1589"
       inkscape:connector-curvature="0"
       transform="scale(0.26458333)" />
    <path
       style="opacity:0.01000001;fill:#ffffff;fill-opacity:1;stroke:#000000;stroke-width:0.49093413;stroke-miterlimit:4;stroke-dasharray:none;stroke-opacity:1"
       d="M -284.91409,165.32342 V 15.919752 h 104.76965 104.769659 V 165.32342 314.72707 H -180.14444 -284.91409 Z"
       id="path1593"
       inkscape:connector-curvature="0" />
    <path
       style="opacity:1;fill:#ffffff;fill-opacity:1;stroke:none;stroke-width:0.49093413;stroke-miterlimit:4;stroke-dasharray:none;stroke-opacity:1"
       d="M -346.03892,221.97484 V 72.571171 h 104.76966 104.76965 V 221.97484 371.37849 h -104.76965 -104.76966 z"
       id="path1597"
       inkscape:connector-curvature="0" />
    <path
       style="opacity:0.01000001;fill:none;fill-opacity:1;stroke:none;stroke-width:0;stroke-miterlimit:4;stroke-dasharray:none;stroke-opacity:1"
       d="M 400.83321,1132.3768 6.3686438,1131.8616 V 569.22177 6.581964 L 401.33833,6.0667998 796.30801,5.5516353 578.11502,557.6 c -114.05568,288.57136 217.96563,576.067 217.68784,575.7921 -0.27779,-0.275 -178.01413,-0.7319 -394.96965,-1.0153 z"
       id="path1603"
       inkscape:connector-curvature="0"
       sodipodi:nodetypes="scccccscs"
       transform="scale(0.26458333)" />
    <path
       style="opacity:0;fill:#1f1f1f;fill-opacity:1;stroke:#f5f5f5;stroke-width:0;stroke-miterlimit:4;stroke-dasharray:none;stroke-opacity:1"
       d="M 6.9644657,568.90654 V 5.2414166 L 399.91381,5.2413464 792.86315,5.2412761 V 568.90637 1132.5715 l -392.94934,10e-5 -392.9493443,10e-5 z"
       id="path1621"
       inkscape:connector-curvature="0"
       transform="scale(0.26458333)" />
    <g
       id="g1269"
       transform="matrix(0.23486437,0,0,0.24524023,239.75407,121.91295)"
       style="stroke-width:5.97092704;stroke-miterlimit:4;stroke-dasharray:none">
      <path
         id="path1055"
         d="m -656.37828,-144.82797 h -4.03191 v -110.453 a 63.92718,63.92718 0 0 0 -63.92738,-63.92726 h -234.00944 a 63.92718,63.92718 0 0 0 -63.92739,63.92728 v 605.95366 a 63.92719,63.92719 0 0 0 63.92739,63.92725 h 234.00944 a 63.92719,63.92719 0 0 0 63.92738,-63.92726 V -66.205668 h 4.03191 z"
         inkscape:connector-curvature="0"
         style="fill:#e6e6e6;stroke-width:5.97092704;stroke-miterlimit:4;stroke-dasharray:none" />
      <path
         id="path1057"
         d="m -721.75806,-302.57655 h -30.546 a 22.68123,22.68123 0 0 1 -20.99971,31.24733 h -134.06111 a 22.68123,22.68123 0 0 1 -20.99972,-31.24733 h -28.53 a 47.74011,47.74011 0 0 0 -47.7402,47.74005 v 605.06469 a 47.74012,47.74012 0 0 0 47.7402,47.74012 h 235.13654 a 47.74012,47.74012 0 0 0 47.74018,-47.74012 V -254.8365 a 47.74011,47.74011 0 0 0 -47.74018,-47.74005 z"
         inkscape:connector-curvature="0"
         style="fill:#ffffff;stroke-width:5.97092704;stroke-miterlimit:4;stroke-dasharray:none" />
      <path
         id="path1059"
         d="m -908.60198,-179.5735 h -14.03928 a 1.86134,1.86134 0 0 0 -1.86133,1.86133 v 6.16225 a 1.86134,1.86134 0 0 0 1.86133,1.86133 h 2.32651 v 9.23317 h 9.38625 v -9.23317 h 2.32652 a 1.86133,1.86133 0 0 0 1.86132,-1.86133 v -6.16225 a 1.86133,1.86133 0 0 0 -1.86132,-1.86133 z"
         inkscape:connector-curvature="0"
         style="fill:#e6e6e6;stroke-width:5.97092704;stroke-miterlimit:4;stroke-dasharray:none" />
      <path
         id="path1061"
         d="m -894.54014,-123.17655 a 72.178,72.178 0 0 1 -12.55683,-42.79357 1.52226,1.52226 0 0 0 -1.18821,-1.5191 v -2.66269 h -14.82734 v 2.62568 h -0.2043 a 1.52142,1.52142 0 0 0 -1.51944,1.52339 q 6e-5,0.0554 0.004,0.11074 1.75218,24.42494 -11.83339,43.8076 a 4.19288,4.19288 0 0 0 -0.75883,2.541 l 1.62129,50.151322 a 4.34147,4.34147 0 0 0 4.30433,4.19019 h 33.53723 a 4.343,4.343 0 0 0 4.30692,-4.26409 l 0.62478,-48.692832 a 8.78784,8.78784 0 0 0 -1.51039,-5.01764 z"
         inkscape:connector-curvature="0"
         style="fill:#e6e6e6;stroke-width:5.97092704;stroke-miterlimit:4;stroke-dasharray:none" />
      <path
         id="path1063"
         d="m -899.84916,-106.51786 h -29.19154 a 2.997,2.997 0 0 0 -2.96218,3.45275 l 4.41126,28.673212 h 25.33006 l 5.3581,-28.576602 a 2.997,2.997 0 0 0 -2.9457,-3.54936 z"
         inkscape:connector-curvature="0"
         style="fill:#1f1f2f;fill-opacity:1;stroke-width:5.97092704;stroke-miterlimit:4;stroke-dasharray:none" />
      <path
         id="path1065"
         d="m -752.3177,-29.338928 h -14.03928 a 1.86133,1.86133 0 0 0 -1.86133,1.86132 v 6.16226 a 1.86134,1.86134 0 0 0 1.86133,1.86133 h 2.32651 v 9.23316 h 9.38625 v -9.23318 h 2.32652 a 1.86133,1.86133 0 0 0 1.86132,-1.86133 v -6.16226 a 1.86132,1.86132 0 0 0 -1.86132,-1.8613 z"
         inkscape:connector-curvature="0"
         style="fill:#e6e6e6;stroke-width:5.97092704;stroke-miterlimit:4;stroke-dasharray:none" />
      <path
         id="path1067"
         d="m -738.25586,27.058022 a 72.178,72.178 0 0 1 -12.55683,-42.79357 1.52226,1.52226 0 0 0 -1.1882,-1.5191 v -2.66269 h -14.82735 v 2.62568 h -0.2043 a 1.52141,1.52141 0 0 0 -1.51944,1.52339 q 7e-5,0.0554 0.004,0.11074 1.75218,24.42492 -11.83339,43.8076 a 4.19294,4.19294 0 0 0 -0.75883,2.541 l 1.62129,50.15132 a 4.34145,4.34145 0 0 0 4.30433,4.19018 h 33.53723 a 4.343,4.343 0 0 0 4.30692,-4.26409 l 0.62479,-48.69283 a 8.78789,8.78789 0 0 0 -1.5104,-5.01763 z"
         inkscape:connector-curvature="0"
         style="fill:#e6e6e6;stroke-width:5.97092704;stroke-miterlimit:4;stroke-dasharray:none" />
      <path
         id="path1069"
         d="m -743.56488,43.716702 h -29.19151 a 2.997,2.997 0 0 0 -2.96218,3.45276 l 4.41126,28.6732 h 25.33006 l 5.35811,-28.57659 a 2.9971,2.9971 0 0 0 -2.94571,-3.54937 z"
         inkscape:connector-curvature="0"
         style="fill:#1f1f2f;fill-opacity:1;stroke-width:5.97092704;stroke-miterlimit:4;stroke-dasharray:none" />
      <path
         id="path1071"
         d="m -928.33939,183.04863 h -6.65947 a 0.88292,0.88292 0 0 0 -0.88292,0.88291 v 2.923 a 0.88292,0.88292 0 0 0 0.88292,0.88291 h 1.10357 v 4.37972 h 4.45233 v -4.37972 h 1.10357 a 0.88291,0.88291 0 0 0 0.88291,-0.88291 v -2.923 a 0.88291,0.88291 0 0 0 -0.88291,-0.88291 z"
         inkscape:connector-curvature="0"
         style="fill:#e6e6e6;stroke-width:5.97092704;stroke-miterlimit:4;stroke-dasharray:none" />
      <path
         id="path1073"
         d="m -921.6692,209.80028 a 34.2373,34.2373 0 0 1 -5.95627,-20.29895 0.72208,0.72208 0 0 0 -0.56363,-0.72057 v -1.263 h -7.03329 v 1.24548 h -0.0969 a 0.72168,0.72168 0 0 0 -0.72074,0.72262 q 0,0.0263 0.002,0.0525 a 31.24565,31.24565 0 0 1 -5.61312,20.77995 1.98884,1.98884 0 0 0 -0.35994,1.20529 l 0.769,23.78907 a 2.05934,2.05934 0 0 0 2.04174,1.98759 h 15.90824 a 2.06007,2.06007 0 0 0 2.043,-2.02265 l 0.29636,-23.09723 a 4.1684,4.1684 0 0 0 -0.71644,-2.38012 z"
         inkscape:connector-curvature="0"
         style="fill:#e6e6e6;stroke-width:5.97092704;stroke-miterlimit:4;stroke-dasharray:none" />
      <rect
         id="rect1075"
         height="7.58953"
         width="15.17906"
         y="218.54497"
         x="-939.13776"
         style="fill:#1f1f2f;fill-opacity:1;stroke-width:5.97092704;stroke-miterlimit:4;stroke-dasharray:none" />
      <path
         id="path1077"
         d="m -897.33939,183.04863 h -6.65947 a 0.88292,0.88292 0 0 0 -0.88292,0.88291 v 2.923 a 0.88292,0.88292 0 0 0 0.88292,0.88291 h 1.10357 v 4.37972 h 4.45233 v -4.37972 h 1.10357 a 0.88291,0.88291 0 0 0 0.88291,-0.88291 v -2.923 a 0.88291,0.88291 0 0 0 -0.88291,-0.88291 z"
         inkscape:connector-curvature="0"
         style="fill:#e6e6e6;stroke-width:5.97092704;stroke-miterlimit:4;stroke-dasharray:none" />
      <path
         id="path1079"
         d="m -890.6692,209.80028 a 34.2373,34.2373 0 0 1 -5.95627,-20.29895 0.72208,0.72208 0 0 0 -0.56363,-0.72057 v -1.263 h -7.03329 v 1.24548 h -0.0969 a 0.72168,0.72168 0 0 0 -0.72074,0.72262 q 0,0.0263 0.002,0.0525 a 31.24565,31.24565 0 0 1 -5.61312,20.77995 1.98884,1.98884 0 0 0 -0.35994,1.20529 l 0.769,23.78907 a 2.05934,2.05934 0 0 0 2.04174,1.98759 h 15.90824 a 2.06007,2.06007 0 0 0 2.043,-2.02265 l 0.29636,-23.09723 a 4.1684,4.1684 0 0 0 -0.71644,-2.38012 z"
         inkscape:connector-curvature="0"
         style="fill:#e6e6e6;stroke-width:5.97092704;stroke-miterlimit:4;stroke-dasharray:none" />
      <rect
         id="rect1081"
         height="7.58953"
         width="15.17906"
         y="218.54497"
         x="-908.13776"
         style="fill:#1f1f2f;fill-opacity:1;stroke-width:5.97092704;stroke-miterlimit:4;stroke-dasharray:none" />
      <path
         id="path1083"
         d="m -866.33939,183.04863 h -6.65947 a 0.88292,0.88292 0 0 0 -0.88292,0.88291 v 2.923 a 0.88292,0.88292 0 0 0 0.88292,0.88291 h 1.10357 v 4.37972 h 4.45233 v -4.37972 h 1.10357 a 0.88291,0.88291 0 0 0 0.88291,-0.88291 v -2.923 a 0.88291,0.88291 0 0 0 -0.88291,-0.88291 z"
         inkscape:connector-curvature="0"
         style="fill:#e6e6e6;stroke-width:5.97092704;stroke-miterlimit:4;stroke-dasharray:none" />
      <path
         id="path1085"
         d="m -859.6692,209.80028 a 34.2373,34.2373 0 0 1 -5.95627,-20.29895 0.72208,0.72208 0 0 0 -0.56363,-0.72057 v -1.263 h -7.03329 v 1.24548 h -0.0969 a 0.72168,0.72168 0 0 0 -0.72074,0.72262 q 0,0.0263 0.002,0.0525 a 31.24565,31.24565 0 0 1 -5.61312,20.77995 1.98884,1.98884 0 0 0 -0.35994,1.20529 l 0.769,23.78907 a 2.05934,2.05934 0 0 0 2.04174,1.98759 h 15.90824 a 2.06007,2.06007 0 0 0 2.043,-2.02265 l 0.29636,-23.09723 a 4.1684,4.1684 0 0 0 -0.71644,-2.38012 z"
         inkscape:connector-curvature="0"
         style="fill:#e6e6e6;stroke-width:5.97092704;stroke-miterlimit:4;stroke-dasharray:none" />
      <rect
         id="rect1087"
         height="7.58953"
         width="15.17906"
         y="218.54497"
         x="-877.13776"
         style="fill:#1f1f2f;fill-opacity:1;stroke-width:5.97092704;stroke-miterlimit:4;stroke-dasharray:none" />
      <path
         id="path1089"
         d="m -776.70713,124.92878 h -14.03926 a 1.86132,1.86132 0 0 0 -1.86133,1.86132 v 6.16226 a 1.86133,1.86133 0 0 0 1.86133,1.86133 h 2.32651 v 9.23316 h 9.38625 v -9.23316 h 2.32651 a 1.86133,1.86133 0 0 0 1.86132,-1.86133 v -6.16226 a 1.86132,1.86132 0 0 0 -1.86133,-1.86132 z"
         inkscape:connector-curvature="0"
         style="fill:#e6e6e6;stroke-width:5.97092704;stroke-miterlimit:4;stroke-dasharray:none" />
      <path
         id="path1091"
         d="m -762.64529,181.32573 a 72.178,72.178 0 0 1 -12.55683,-42.79357 1.52226,1.52226 0 0 0 -1.1882,-1.5191 v -2.66269 h -14.82735 v 2.62568 h -0.2043 a 1.52141,1.52141 0 0 0 -1.51944,1.52339 q 7e-5,0.0554 0.004,0.11074 1.75218,24.42492 -11.83339,43.8076 a 4.19294,4.19294 0 0 0 -0.75883,2.541 l 1.62129,50.15132 a 4.34145,4.34145 0 0 0 4.30434,4.19018 h 33.53722 a 4.343,4.343 0 0 0 4.30693,-4.26409 l 0.62478,-48.69283 a 8.78782,8.78782 0 0 0 -1.5104,-5.01763 z"
         inkscape:connector-curvature="0"
         style="fill:#e6e6e6;stroke-width:5.97092704;stroke-miterlimit:4;stroke-dasharray:none" />
      <path
         id="path1093"
         d="m -767.9543,197.98441 h -29.19155 a 2.997,2.997 0 0 0 -2.96218,3.45276 l 4.41127,28.6732 h 25.33006 l 5.3581,-28.57659 a 2.9971,2.9971 0 0 0 -2.9457,-3.54937 z"
         inkscape:connector-curvature="0"
         style="fill:#1f1f2f;fill-opacity:1;stroke-width:5.97092704;stroke-miterlimit:4;stroke-dasharray:none" />
      <path
         id="path1095"
         d="m -769.04268,-58.745748 h -83.68771 c 5.85094,-31.63336 4.50485,-69.831722 0,-110.911422 h 83.68771 c -4.38503,41.07983 -5.69536,79.278132 0,110.911422 z"
         inkscape:connector-curvature="0"
         style="fill:#e6e6e6;stroke-width:5.97092704;stroke-miterlimit:4;stroke-dasharray:none" />
      <circle
         id="circle1097"
         r="20.16571"
         cy="-117.22632"
         cx="-810.38239"
         style="fill:#1f1f2f;fill-opacity:1;stroke-width:5.97092704;stroke-miterlimit:4;stroke-dasharray:none" />
      <path
         id="path1099"
         d="m -845.67239,88.463962 h -83.68771 c 5.85093,-31.63337 4.50485,-69.83173 0,-110.91143 h 83.68771 c -4.385,41.07984 -5.69536,79.27813 0,110.91143 z"
         inkscape:connector-curvature="0"
         style="fill:#e6e6e6;stroke-width:5.97092704;stroke-miterlimit:4;stroke-dasharray:none" />
      <circle
         id="circle1101"
         r="20.16571"
         cy="29.983381"
         cx="-887.01208"
         style="fill:#1f1f2f;fill-opacity:1;stroke-width:5.97092704;stroke-miterlimit:4;stroke-dasharray:none" />
      <path
         id="path1103"
         d="m -721.65325,-51.687748 h -83.68771 c 5.85093,-31.63336 4.50485,-69.831722 0,-110.911422 h 83.68771 c -4.38504,41.07983 -5.69536,79.278132 0,110.911422 z"
         inkscape:connector-curvature="0"
         style="fill:#e6e6e6;stroke-width:5.97092704;stroke-miterlimit:4;stroke-dasharray:none" />
      <circle
         id="circle1105"
         r="20.16571"
         cy="-110.16832"
         cx="-762.99298"
         style="fill:#ffffff;stroke-width:5.97092704;stroke-miterlimit:4;stroke-dasharray:none" />
      <path
         id="path1107"
         d="m -721.65325,-56.729168 h -83.68771 c 5.85093,-31.63337 4.50485,-69.831732 0,-110.911432 h 83.68771 c -4.38504,41.07983 -5.69536,79.278122 0,110.911432 z"
         inkscape:connector-curvature="0"
         style="fill:#e6e6e6;stroke-width:5.97092704;stroke-miterlimit:4;stroke-dasharray:none" />
      <circle
         id="circle1109"
         r="20.16571"
         cy="-115.20973"
         cx="-762.99298"
         style="fill:#ffffff;stroke-width:5.97092704;stroke-miterlimit:4;stroke-dasharray:none" />
      <path
         id="path1111"
         d="m -721.65325,-51.687748 h -83.68771 c 5.85093,-31.63336 4.50485,-69.831722 0,-110.911422 h 83.68771 c -4.38504,41.07983 -5.69536,79.278132 0,110.911422 z"
         inkscape:connector-curvature="0"
         style="fill:#e6e6e6;stroke-width:5.97092704;stroke-miterlimit:4;stroke-dasharray:none" />
      <circle
         id="circle1113"
         r="20.16571"
         cy="-110.16832"
         cx="-762.99298"
         style="fill:#1f1f2f;fill-opacity:1;stroke-width:5.97092704;stroke-miterlimit:4;stroke-dasharray:none" />
      <rect
         id="rect1115"
         height="30.248569"
         width="274.25372"
         y="-64.795456"
         x="-976.74951"
         style="fill:#e6e6e6;stroke:#f5f5f5;stroke-width:5.97092704;stroke-miterlimit:4;stroke-dasharray:none;stroke-opacity:1" />
      <rect
         id="rect1117"
         height="30.248569"
         width="274.25372"
         y="85.439102"
         x="-976.74951"
         style="fill:#e6e6e6;stroke-width:5.97092704;stroke-miterlimit:4;stroke-dasharray:none" />
      <rect
         id="rect1119"
         height="30.248569"
         width="274.25372"
         y="235.67369"
         x="-976.74951"
         style="fill:#e6e6e6;stroke-width:5.97092704;stroke-miterlimit:4;stroke-dasharray:none" />
      <path
         id="path1121"
         d="m -225.41982,358.39067 -68.32479,-48.32553 c 23.04357,-22.44766 44.00226,-54.41107 64.04589,-90.55092 l 68.32473,48.32553 c -27.30158,31.00648 -50.429,61.4359 -64.04583,90.55092 z"
         inkscape:connector-curvature="0"
         style="fill:#1f1f2f;fill-opacity:1;stroke:#f5f5f5;stroke-width:5.97092704;stroke-miterlimit:4;stroke-dasharray:none;stroke-opacity:1" />
      <circle
         id="circle1123"
         r="20.16571"
         cy="286.77396"
         cx="-225.40097"
         style="fill:#ffffff;stroke-width:5.97092704;stroke-miterlimit:4;stroke-dasharray:none" />
      <path
         id="path1125"
         d="m -555.012,137.86996 h -7.5 a 0.99435,0.99435 0 0 0 -0.99435,0.99435 v 3.292 a 0.99434,0.99434 0 0 0 0.99435,0.99434 h 1.24285 v 4.93249 h 5.01427 v -4.93249 h 1.24285 a 0.99435,0.99435 0 0 0 0.99435,-0.99434 v -3.292 a 0.99436,0.99436 0 0 0 -0.99432,-0.99435 z"
         inkscape:connector-curvature="0"
         style="fill:#e6e6e6;stroke-width:5.97092704;stroke-miterlimit:4;stroke-dasharray:none" />
      <path
         id="path1127"
         d="m -547.49996,167.99801 a 38.55843,38.55843 0 0 1 -6.708,-22.86093 0.81323,0.81323 0 0 0 -0.63476,-0.81152 v -1.42245 h -7.921 v 1.40268 h -0.10914 a 0.81275,0.81275 0 0 0 -0.8117,0.81381 q 0,0.0296 0.002,0.0592 a 35.18922,35.18922 0 0 1 -6.32157,23.40264 2.23989,2.23989 0 0 0 -0.40537,1.35741 l 0.86611,26.79155 a 2.31928,2.31928 0 0 0 2.29944,2.23846 h 17.91606 a 2.32008,2.32008 0 0 0 2.30082,-2.27794 l 0.33376,-26.0124 a 4.69456,4.69456 0 0 0 -0.80688,-2.68047 z"
         inkscape:connector-curvature="0"
         style="fill:#1f1f2f;fill-opacity:1;stroke:#f5f5f5;stroke-width:5.97092704;stroke-miterlimit:4;stroke-dasharray:none;stroke-opacity:1" />
      <path
         id="path1129"
         style="opacity:0.2;isolation:isolate;stroke-width:5.97092704;stroke-miterlimit:4;stroke-dasharray:none"
         d="m -556.57547,138.94261 a 2.145265,2.145265 0 0 1 -4.29053,0"
         inkscape:connector-curvature="0" />
      <rect
         id="rect1131"
         height="10.08286"
         width="15.12429"
         y="173.15996"
         x="-566.11377"
         style="fill:#ffffff;stroke-width:5.97092704;stroke-miterlimit:4;stroke-dasharray:none" />
      <path
         id="path1133"
         d="m -317.672,242.53363 h -14.03927 a 1.86134,1.86134 0 0 0 -1.86134,1.86133 v 6.16226 a 1.86134,1.86134 0 0 0 1.86134,1.86132 h 2.32651 v 9.23317 h 9.38625 v -9.23317 h 2.32651 a 1.86132,1.86132 0 0 0 1.86132,-1.86132 v -6.16226 a 1.86133,1.86133 0 0 0 -1.86132,-1.86133 z"
         inkscape:connector-curvature="0"
         style="fill:#e6e6e6;stroke-width:5.97092704;stroke-miterlimit:4;stroke-dasharray:none" />
      <path
         id="path1135"
         d="m -303.61016,298.93059 a 72.178,72.178 0 0 1 -12.55683,-42.79358 1.52224,1.52224 0 0 0 -1.1882,-1.51909 v -2.6627 h -14.82735 v 2.62568 h -0.2043 a 1.52142,1.52142 0 0 0 -1.51944,1.5234 q 8e-5,0.0554 0.004,0.11073 1.75218,24.42493 -11.83339,43.80761 a 4.19289,4.19289 0 0 0 -0.75883,2.54095 l 1.62129,50.15132 a 4.34146,4.34146 0 0 0 4.30434,4.19019 h 33.53722 a 4.343,4.343 0 0 0 4.30692,-4.26409 l 0.62479,-48.69283 a 8.7878,8.7878 0 0 0 -1.5104,-5.01759 z"
         inkscape:connector-curvature="0"
         style="fill:#1f1f2f;fill-opacity:1;stroke:#f5f5f5;stroke-width:5.97092704;stroke-miterlimit:4;stroke-dasharray:none;stroke-opacity:1" />
      <path
         id="path1137"
         style="opacity:0.2;isolation:isolate;stroke-width:5.97092704;stroke-miterlimit:4;stroke-dasharray:none"
         d="m -320.59868,244.54153 a 4.01574,4.01574 0 0 1 -8.03148,0"
         inkscape:connector-curvature="0" />
      <path
         id="path1139"
         d="m -308.91917,315.58927 h -29.19155 a 2.997,2.997 0 0 0 -2.96218,3.45275 l 4.41126,28.67321 h 25.33007 l 5.3581,-28.5766 a 2.9971,2.9971 0 0 0 -2.9457,-3.54936 z"
         inkscape:connector-curvature="0"
         style="fill:#ffffff;stroke-width:5.97092704;stroke-miterlimit:4;stroke-dasharray:none" />
      <path
         id="path1141"
         d="m -357.72839,358.31167 h -83.68773 c 5.85094,-31.63336 4.50486,-69.83172 0,-110.91142 h 83.68773 c -4.385,41.07982 -5.69538,79.27812 0,110.91142 z"
         inkscape:connector-curvature="0"
         style="fill:#1f1f2f;fill-opacity:1;stroke:#f5f5f5;stroke-width:5.97092704;stroke-miterlimit:4;stroke-dasharray:none;stroke-opacity:1" />
      <circle
         id="circle1143"
         r="20.16571"
         cy="299.83109"
         cx="-399.06808"
         style="fill:#ffffff;stroke-width:5.97092704;stroke-miterlimit:4;stroke-dasharray:none" />
      <polygon
         id="polygon1145"
         points="341.03,326.758 352.986,297.724 331.637,285.768 322.243,328.466 "
         style="fill:#ffffff;stroke-width:5.97092704;stroke-miterlimit:4;stroke-dasharray:none"
         transform="translate(-1022.2744,-319.20821)" />
      <path
         id="path1151"
         d="m -714.54887,396.95847 h 17.07932 l 42.36316,-191.53337 43.88737,59.16871 25.619,128.09483 h 16.22535 l -3.41586,-137.48845 -57.2157,-146.88208 H -686.368 c -15.40224,27.87449 -27.48462,56.60826 -13.66345,86.25052 z"
         inkscape:connector-curvature="0"
         style="fill:#1f1f1f;fill-opacity:1;stroke:#f5f5f5;stroke-width:5.97092704;stroke-miterlimit:4;stroke-dasharray:none;stroke-opacity:1" />
      <path
         id="path1153"
         d="m -596.0699,408.59207 a 4.45733,4.45733 0 0 0 3.4756,5.71828 l 41.79324,7.41672 a 6.87646,6.87646 0 0 0 7.8008,-4.71314 v 0 a 6.83384,6.83384 0 0 0 -3.34222,-8.12572 63.9022,63.9022 0 0 1 -23.04833,-20.0382 c -4.59335,4.27726 -9.7273,3.875 -15.179,0.72281 l -5.78247,0.72281 z"
         inkscape:connector-curvature="0"
         style="fill:#2f2e41;stroke:#f5f5f5;stroke-width:5.97092704;stroke-miterlimit:4;stroke-dasharray:none;stroke-opacity:1" />
      <path
         id="path1155"
         d="m -722.4568,408.59207 a 4.45733,4.45733 0 0 0 3.4756,5.71828 l 41.79324,7.41672 a 6.87646,6.87646 0 0 0 7.8008,-4.71314 v 0 a 6.83384,6.83384 0 0 0 -3.34222,-8.12572 63.9022,63.9022 0 0 1 -23.04833,-20.0382 c -4.59335,4.27726 -9.7273,3.875 -15.179,0.72281 l -5.78247,0.72281 z"
         inkscape:connector-curvature="0"
         style="fill:#2f2e41;stroke:#f5f5f5;stroke-width:5.97092704;stroke-miterlimit:4;stroke-dasharray:none;stroke-opacity:1" />
      <circle
         id="circle1157"
         r="23.911039"
         cy="-34.721115"
         cx="-668.86169"
         style="fill:#1f1f1f;fill-opacity:1;stroke:#f5f5f5;stroke-width:5.97092704;stroke-miterlimit:4;stroke-dasharray:none;stroke-opacity:1" />
      <path
         id="path1159"
         d="m -690.21085,114.72285 62.33946,-1.70789 -18.30772,-57.619628 c 11.37738,-18.23924 -0.073,-36.46 -16.27789,-54.67684002 l -12.80948,-8.53964998 -20.49517,-1.70793 v 0 a 50.3141,50.3141 0 0 0 -13.54915,35.0504 c 0.4058,27.82656 5.33293,58.11865 19.09995,89.201538 z"
         inkscape:connector-curvature="0"
         style="opacity:1;fill:#1f1f1f;fill-opacity:1;stroke:#f5f5f5;stroke-width:5.97092704;stroke-miterlimit:4;stroke-dasharray:none;stroke-opacity:1" />
      <path
         id="path1149"
         d="m -558.93573,95.478632 -0.32093,-26.79954 -64.79286,-10.33856 -49.91534,-57.24757 a 16.33816,16.33816 0 0 0 -21.29428,-2.91186 v 0 a 16.33815,16.33815 0 0 0 -2.84636,24.922 l 41.17966,50.67767 z"
         inkscape:connector-curvature="0"
         style="fill:#1f1f1f;fill-opacity:1;stroke:#f5f5f5;stroke-width:5.97092704;stroke-miterlimit:4;stroke-dasharray:none;stroke-opacity:1" />
      <path
         id="path1161"
         d="m -546.98293,153.50748 v 0 c 5.11391,-5.11159 3.71718,-13.73105 -2.74926,-16.96611 l -18.36161,-14.13283 -7.23756,15.02492 14.26189,16.86962 c 4.21474,3.3552 10.27639,3.01284 14.08654,-0.7956 z"
         inkscape:connector-curvature="0"
         style="fill:#1f1f1f;fill-opacity:1;stroke:#f5f5f5;stroke-width:5.97092704;stroke-miterlimit:4;stroke-dasharray:none;stroke-opacity:1"
         sodipodi:nodetypes="ccscccc" />
      <path
         id="path1163"
         d="m -578.34139,147.17354 10.24759,-24.765 c -47.06299,-27.669654 -40.51981,-26.976469 -70.83381,-43.489929 l 8.92138,29.399499 z"
         inkscape:connector-curvature="0"
         style="opacity:1;fill:#1f1f1f;fill-opacity:0.98895024;stroke:#fefff7;stroke-width:5.97092704;stroke-miterlimit:4;stroke-dasharray:none;stroke-opacity:0.97790055"
         sodipodi:nodetypes="ccccc" />
      <path
         id="path1165"
         d="m -708.14412,-44.114738 c 0,9.30389 6.04222,23.7124 13.66345,29.8888 5.12781,4.15568 11.90457,3.98066 14.51741,-1.70793 2.68032,-5.83557 11.91945,-19.55229 28.18086,-28.18087 21.67761,-11.50252 -7.68756,-31.18152 -28.18086,-28.18086 -15.39963,2.25485 -28.18086,12.617 -28.18086,28.18086 z"
         inkscape:connector-curvature="0"
         style="fill:#1f1f1f;fill-opacity:1;stroke:#f5f5f5;stroke-width:5.97092704;stroke-miterlimit:4;stroke-dasharray:none;stroke-opacity:1" />
      <circle
         id="circle1167"
         r="17.079309"
         cy="-74.003525"
         cx="-693.62671"
         style="fill:#1f1f1f;fill-opacity:1;stroke:#f5f5f5;stroke-width:5.97092704;stroke-miterlimit:4;stroke-dasharray:none;stroke-opacity:1" />
      <path
         id="path1169"
         d="m -673.9855,-79.981288 a 17.06865,17.06865 0 0 0 -15.79836,-17.01463 c 0.42437,-0.0316 0.84854,-0.0647 1.28094,-0.0647 a 17.07931,17.07931 0 0 1 0,34.15862 c -0.4324,0 -0.85657,-0.0331 -1.28094,-0.0647 a 17.06869,17.06869 0 0 0 15.79836,-17.01463 z"
         inkscape:connector-curvature="0"
         style="fill:#ffffff;stroke:#000000;stroke-width:5.97092704;stroke-miterlimit:4;stroke-dasharray:none;stroke-opacity:1" />
      <ellipse
         id="ellipse1171"
         ry="5.1237898"
         rx="3.84284"
         cy="-31.305254"
         cx="-668.43475"
         style="fill:#ffffff;stroke:#000000;stroke-width:5.97092704;stroke-miterlimit:4;stroke-dasharray:none;stroke-opacity:1" />
      <polygon
         id="polygon1173"
         points="525.258,406.752 581.559,672.902 837.751,672.902 837.751,684.845 571.879,684.845 515.578,418.694 467.529,418.694 467.529,406.752 "
         style="fill:#f5f5f5;fill-opacity:1;stroke:#1f1f1f;stroke-width:5.97092704;stroke-miterlimit:4;stroke-dasharray:none;stroke-opacity:1"
         transform="translate(-1022.2744,-319.20821)" />
      <circle
         id="circle1175"
         r="25.591379"
         cy="388.66855"
         cx="-411.43338"
         style="fill:#3f3d56;stroke:#f5f5f5;stroke-width:5.97092704;stroke-miterlimit:4;stroke-dasharray:none;stroke-opacity:1" />
      <circle
         id="circle1177"
         r="25.591379"
         cy="388.66855"
         cx="-220.35104"
         style="fill:#3f3d56;stroke:#f5f5f5;stroke-width:5.97092704;stroke-miterlimit:4;stroke-dasharray:none;stroke-opacity:1" />
      <path
         id="path1179"
         d="m -189.37091,360.01269 h -258.67842 l -45.64133,-225.55184 h 347.15137 a 12.2655,12.2655 0 0 1 12.1159,14.16689 l -42.8333,201.0251 a 12.20374,12.20374 0 0 1 -12.11422,10.35985 z m -255.86937,-3.41219 h 255.86937 a 8.80568,8.80568 0 0 0 8.74205,-7.47748 l 42.83327,-201.0251 a 8.85014,8.85014 0 0 0 -8.7437,-10.22489 h -343.00943 z"
         inkscape:connector-curvature="0"
         style="fill:#f5f5f5;fill-opacity:1;stroke:#f5f5f5;stroke-width:5.97092704;stroke-miterlimit:4;stroke-dasharray:none;stroke-opacity:1" />
      <polygon
         id="polygon1181"
         points="594.623,455.653 597.989,455.097 627.879,677.943 624.513,678.499 "
         style="fill:#3f3d56;stroke:#f5f5f5;stroke-width:5.97092704;stroke-miterlimit:4;stroke-dasharray:none;stroke-opacity:1"
         transform="translate(-1022.2744,-319.20821)" />
      <polygon
         id="polygon1183"
         points="787.343,676.242 816.36,455.102 819.729,455.648 790.712,676.788 "
         style="fill:#3f3d56;stroke:#f5f5f5;stroke-width:5.97092704;stroke-miterlimit:4;stroke-dasharray:none;stroke-opacity:1"
         transform="translate(-1022.2744,-319.20821)" />
      <rect
         id="rect1185"
         height="222.84575"
         width="3.4121799"
         y="136.16695"
         x="-314.15945"
         style="fill:#3f3d56;stroke:#f5f5f5;stroke-width:5.97092704;stroke-miterlimit:4;stroke-dasharray:none;stroke-opacity:1" />
      <rect
         id="rect1187"
         transform="rotate(-89.86127)"
         height="330.29568"
         width="3.41219"
         y="-475.78503"
         x="-200.44495"
         style="fill:#3f3d56;stroke:#f5f5f5;stroke-width:5.97092704;stroke-miterlimit:4;stroke-dasharray:none;stroke-opacity:1" />
      <rect
         id="rect1189"
         transform="rotate(-0.39166)"
         height="3.4122601"
         width="290.17789"
         y="300.12192"
         x="-461.50739"
         style="fill:#3f3d56;stroke:#f5f5f5;stroke-width:5.97092704;stroke-miterlimit:4;stroke-dasharray:none;stroke-opacity:1" />
      <ellipse
         id="ellipse1191"
         ry="10.23655"
         rx="18.76701"
         cy="91.808548"
         cx="-549.62683"
         style="fill:#fff000;fill-opacity:0;stroke:#000000;stroke-width:5.97092704;stroke-miterlimit:4;stroke-dasharray:none;stroke-opacity:0" />
      <path
         id="path1147"
         d="m -527.61396,88.965822 v 0 a 10.59328,10.59328 0 0 0 -9.20188,-14.51664 l -29.16988,-1.73941 -4.2949,14.28206 30.02882,8.24691 a 10.59326,10.59326 0 0 0 12.63784,-6.27292 z"
         inkscape:connector-curvature="0"
         style="fill:#ffffff;fill-opacity:0;stroke:#f5f5f5;stroke-width:5.97092704;stroke-miterlimit:4;stroke-dasharray:none;stroke-opacity:1" />
    </g>
    <path
       style="opacity:1;fill:#1f1f2f;fill-opacity:1;stroke:#f5f5f5;stroke-width:1.433;stroke-miterlimit:4;stroke-dasharray:none;stroke-opacity:1"
       d="M 11.635201,218.82124 C 8.6862258,217.85969 6.5782256,215.96885 5.1733115,213.02502 L 3.9380188,210.43659 V 133.58711 56.737622 l 1.2335278,-2.58476 c 2.1583771,-4.522615 6.0298214,-6.520349 12.6455204,-6.52532 l 3.677368,-0.0028 v 2.119327 c 0,2.551651 1.001203,4.187979 3.131006,5.11718 2.327944,1.015648 33.187641,1.006132 35.518889,-0.01097 2.089564,-0.911649 3.224194,-2.776583 3.191547,-5.245843 l -0.02615,-1.979709 h 3.928085 c 6.893551,0 10.593935,1.884968 12.808056,6.524408 l 1.235283,2.588435 v 21.235597 21.235594 l -1.054565,-0.771286 c -1.097684,-0.802809 -2.748962,-1.044459 -2.73114,-0.399685 0.0054,0.20438 0.699583,0.706032 1.542115,1.114783 0.853692,0.414181 1.592103,1.181887 1.667931,1.734117 0.117163,0.85284 0.06914,0.87916 -0.34461,0.18884 -0.691184,-1.153229 -3.134219,-2.08698 -4.514116,-1.725353 -1.962219,0.514249 -3.106578,2.209693 -3.106578,4.602703 0,2.02745 -0.07014,2.13615 -1.377825,2.13615 h -1.377834 l -0.321431,-5.07848 c -0.176807,-2.793156 -0.07992,-8.393084 0.215319,-12.444286 0.295229,-4.0512 0.460289,-7.445697 0.366794,-7.543329 -0.09351,-0.09763 -7.057651,-0.330631 -15.475895,-0.517781 l -15.305901,-0.340271 0.386841,4.415382 c 0.465339,5.311142 0.46027,18.242535 -0.0082,20.146245 l -0.335062,1.36252 -4.854582,4.9e-4 -4.854544,4.9e-4 0.155122,-6.675062 c 0.154479,-6.645673 0.148605,-6.688519 -1.355542,-9.87881 -1.223472,-2.595042 -1.559149,-4.015395 -1.765616,-7.471271 l -0.254944,-4.267084 -1.948244,0.148865 -1.948254,0.148864 -0.112962,3.22049 c -0.138976,3.961196 -0.843872,7.160695 -2.052972,9.318196 -0.742077,1.324153 -0.914332,2.56007 -0.897624,6.440987 0.01132,2.641327 0.196221,5.749975 0.410798,6.908135 l 0.3901,2.1057 h -5.155765 -5.155766 v 3.71595 3.71595 h 31.739926 31.739898 l 0.295555,1.22957 c 0.162553,0.67625 0.955152,2.01399 1.761318,2.97275 0.961822,1.14384 1.230107,1.7432 0.780316,1.7432 -0.37703,0 -1.306621,1.17053 -2.065768,2.60116 -1.29777,2.44566 -1.375789,2.9122 -1.30521,7.8035 0.04127,2.86128 0.414935,6.83335 0.830359,8.82681 0.415432,1.99346 0.7553,3.72137 0.7553,3.83981 0,0.11844 -1.868326,0.21571 -4.15184,0.21615 l -4.151866,9.2e-4 0.143899,-6.95993 c 0.127444,-6.16355 0.03901,-7.14158 -0.772814,-8.54748 -1.451534,-2.51372 -2.089871,-5.15877 -2.162395,-8.95996 l -0.06725,-3.52773 -2.010813,-0.15235 c -1.980755,-0.15008 -2.011519,-0.12787 -2.058583,1.48638 -0.170373,5.84076 -0.791657,8.85066 -2.403039,11.64155 -0.836685,1.44912 -0.880744,2.13653 -0.53188,8.29896 l 0.380369,6.71876 h -7.917389 -7.917397 l -0.340882,-2.84885 c -0.18747,-1.56688 -0.219971,-7.47524 -0.07213,-13.1297 l 0.268692,-10.28083 h -9.708894 -9.708917 l 0.36502,3.83982 c 0.471004,4.95421 0.47162,18.16264 0,20.54604 l -0.363826,1.84242 -5.556626,0.13942 -5.556663,0.13942 -0.139419,3.59208 -0.139409,3.59209 h 32.26586 32.265824 l 0.139418,-3.51641 0.139411,-3.5164 1.128338,3.47517 1.128331,3.47517 -1.53521,3.85068 c -1.895469,4.75429 -2.427077,10.27279 -1.317239,13.67393 0.487161,1.49288 0.651868,3.38533 0.511815,5.88084 -0.364531,6.49597 0.358367,5.90916 -7.279777,5.90916 h -6.633936 v -6.20971 c 0,-5.60542 -0.112963,-6.44253 -1.160886,-8.60186 -1.22216,-2.51833 -2.262145,-7.69919 -2.04936,-10.20916 0.120277,-1.41872 0.03422,-1.49332 -1.890609,-1.63874 -1.415593,-0.10694 -2.019129,0.0407 -2.025049,0.49546 -0.05539,4.25912 -1.042112,9.65863 -2.137642,11.69787 -1.224485,2.27932 -1.243465,2.45269 -0.918531,8.39676 l 0.331776,6.06938 H 44.56462 38.101808 v -2.75756 c 0,-1.51668 -0.241485,-3.22879 -0.536669,-3.8047 -0.295175,-0.57589 -0.668847,-2.17767 -0.830359,-3.5595 -0.243131,-2.07989 -0.457075,-2.51243 -1.242696,-2.51243 -0.788426,0 -0.992178,0.41915 -1.204266,2.4773 -0.140396,1.36251 -0.539502,3.01396 -0.886935,3.66989 -0.42948,0.81083 -0.536289,2.03999 -0.333722,3.83982 l 0.29797,2.64722 h -1.443985 -1.443978 l 0.314091,-2.47229 c 0.246915,-1.94351 0.09817,-2.99638 -0.695421,-4.92259 -0.555213,-1.34765 -1.009465,-3.14991 -1.009465,-4.00502 0,-1.21392 -0.182012,-1.51815 -0.830386,-1.38792 -0.616967,0.12392 -0.910024,0.84671 -1.140386,2.81257 -0.170508,1.45518 -0.54418,2.89028 -0.830358,3.18912 -0.286206,0.29883 -0.520369,1.94796 -0.520369,3.66474 0,2.99918 -0.04642,3.12139 -1.186227,3.12139 -1.134956,0 -1.186256,-0.12995 -1.186256,-3.00533 0,-1.65294 -0.234932,-3.46372 -0.522106,-4.02397 -0.287146,-0.56024 -0.66309,-2.04795 -0.835436,-3.30601 -0.22112,-1.61423 -0.556227,-2.33623 -1.138639,-2.45335 -0.647378,-0.13018 -0.829797,0.18904 -0.846125,1.48062 -0.01158,0.90561 -0.328527,2.5384 -0.704615,3.62841 -0.376062,1.09001 -0.686976,3.25516 -0.690895,4.81144 l -0.0072,2.82961 -4.15183,0.14316 -4.151866,0.14315 v 3.71596 3.71594 l 31.672724,0.12738 c 30.72827,0.12358 31.672714,0.15537 31.672714,1.06626 0,4.27697 -2.05831,28.83028 -2.506236,29.89648 l -0.57241,1.36252 -28.472661,-0.0332 c -22.353995,-0.026 -28.908892,-0.17539 -30.50266,-0.69505 z"
       id="path1595"
       inkscape:connector-curvature="0" />
    <path
       style="opacity:0.01000001;fill:#ffffff;fill-opacity:1;stroke:#000000;stroke-width:1.433;stroke-miterlimit:4;stroke-dasharray:none;stroke-opacity:1"
       d="m 10.580998,146.48479 v -3.70022 l 5.575325,-0.13959 5.575353,-0.13959 0.38313,-3.22049 c 0.392743,-3.30126 0.08761,-17.60229 -0.446541,-20.93319 l -0.298007,-1.85798 h 9.827321 9.827312 l -0.37942,5.07847 c -0.45541,6.09534 -0.443545,15.57522 0.02354,18.82768 l 0.337976,2.35324 7.918755,7.4e-4 7.918756,7.3e-4 -0.288277,-6.56559 c -0.286386,-6.52296 -0.279228,-6.58527 1.102671,-9.59839 1.066304,-2.32494 1.465835,-4.05957 1.711764,-7.43191 l 0.320824,-4.39908 1.779374,-0.15378 1.779356,-0.15377 v 2.48281 c 0,3.49319 0.853945,7.34876 2.213505,9.99414 1.096462,2.13342 1.153473,2.64062 1.016163,9.04298 l -0.145428,6.78278 4.270468,-0.002 4.270496,-0.002 -0.156119,3.7171 -0.156108,3.71709 H 42.572068 10.580983 Z m 54.139012,-7.07602 c 0.273516,-0.74938 0.535131,-2.58878 0.58138,-4.08755 l 0.08409,-2.72504 h -3.795979 -3.795988 l 0.04526,1.73412 c 0.02498,0.95376 0.198132,2.79316 0.384968,4.08755 l 0.339686,2.35343 h 2.829641 c 2.649999,0 2.861236,-0.0865 3.326956,-1.36251 z m -30.12944,-6.76303 c 1.793393,-1.87262 2.039114,-3.45036 0.896637,-5.75726 -0.891361,-1.79984 -2.046834,-2.46738 -4.270884,-2.46738 -4.573725,0 -6.161574,6.50275 -2.212501,9.06092 2.042825,1.32331 3.76546,1.06546 5.586748,-0.83628 z"
       id="path1599"
       inkscape:connector-curvature="0" />
  </g>
</svg>
